<svg xmlns="http://www.w3.org/2000/svg" xmlns:xlink="http://www.w3.org/1999/xlink" width="150" height="150" viewBox="0 0 150 150">
  <defs>
    <clipPath id="clip-path">
      <rect id="Rectangle_407255" data-name="Rectangle 407255" width="150" height="150" transform="translate(0)" fill="#f69a8b"/>
    </clipPath>
    <clipPath id="clip-path-2">
      <rect id="Rectangle_401492" data-name="Rectangle 401492" width="96.296" height="96.297" transform="translate(-0.331 -0.092)" fill="#953c2d" stroke="#707070" stroke-width="1"/>
    </clipPath>
    <clipPath id="clip-path-3">
      <rect id="Rectangle_409809" data-name="Rectangle 409809" width="65.486" height="87.228" fill="#953c2d"/>
    </clipPath>
  </defs>
  <g id="Group_1119135" data-name="Group 1119135" transform="translate(-179.328 -3684.533)">
    <g id="Group_1116923" data-name="Group 1116923" transform="translate(179.328 3684.533)" clip-path="url(#clip-path)">
      <path id="Path_893365" data-name="Path 893365" d="M148.169,44.41C139.386,14.569,73.684-19.323,25.142,13.36s-13,149.535-6.586,125.918c6.165-22.7,33.5-4.155,54.014-3.491,22.845.739,37.666-5.15,37.63-5.238,10.531-3.911,17.983-9.053,24.206-18.726C146.839,92.5,153.455,62.367,148.169,44.41" transform="translate(0.001 3.798)" fill="#f69a8b"/>
    </g>
    <g id="Group_1115380" data-name="Group 1115380" transform="translate(222.027 3726.987)">
      <rect id="Rectangle_401104" data-name="Rectangle 401104" width="60.924" height="61.907" transform="translate(2.232 0)" fill="none"/>
      <g id="Mask_Group_1098697" data-name="Mask Group 1098697" transform="translate(-15.7 -15.454)" clip-path="url(#clip-path-2)">
        <g id="Group_1120658" data-name="Group 1120658" transform="translate(14.669 4.908)">
          <g id="Group_1120657" data-name="Group 1120657" clip-path="url(#clip-path-3)">
            <path id="Path_928134" data-name="Path 928134" d="M6.522.068,58.485,0a7.648,7.648,0,0,1,7,6.419l-.007,74.242c-.908,3.836-3.659,5.86-7.529,6.165-16.2,1.277-34.044-.984-50.413,0C3.624,86.518.692,84.374,0,80.395L.007,6.152A7.7,7.7,0,0,1,6.522.068M6.79,3.075c-2.657.631-3.818,2.338-4.046,4.992v70.68a4.932,4.932,0,0,0,4.791,5.068H57.951a4.932,4.932,0,0,0,4.791-5.068V8.067A4.932,4.932,0,0,0,57.951,3Z" fill="#953c2d"/>
            <path id="Path_928135" data-name="Path 928135" d="M76.9,31.718l-4.62,1.132c-.386.6.255,7.844-.042,9.406C71.92,43.955,68,45,66.511,45.289c-5.177,1.01-21.832,1.481-25.893-1.8a2.3,2.3,0,0,1-.954-1.237c-.3-1.561.343-8.813-.042-9.406-1.474-.775-6.288-1.2-7.212-2.236-1.14-1.282.138-2.1,1.283-2.533,6.722-2.531,14.933-3.442,21.786-5.895h.949c6.835,2.432,14.892,3.365,21.632,5.775,1.154.412,1.707.636,1.863,1.972a68.44,68.44,0,0,1-.064,10.354c-.438,1.991-2.954,1.348-2.954.332ZM72.247,29.53,55.953,25.281l-16.3,4.383,16.3,4.4L69.3,30.544ZM69.51,33.635,55.953,37.148,42.4,33.635V41.3a51.885,51.885,0,0,0,27.114,0Z" transform="translate(-23.21 -16.11)" fill="#953c2d"/>
            <path id="Path_928136" data-name="Path 928136" d="M35.865,136.231H75.719a4.817,4.817,0,0,1,4.039,4.451c.388,3.5-.242,6.967-4.246,7.534l-39.921-.066c-3.586-.861-4.072-3.97-3.774-7.2a4.813,4.813,0,0,1,4.049-4.715m.267,3.005c-1.977.414-1.781,5.627-.053,5.961l40-.248c1.005-.713,1.294-5.8-.859-5.754Z" transform="translate(-23.049 -98.92)" fill="#953c2d"/>
            <rect id="Rectangle_409807" data-name="Rectangle 409807" width="6.33" height="20.936" transform="translate(28.726 54.864)" fill="#953c2d"/>
            <rect id="Rectangle_409808" data-name="Rectangle 409808" width="20.936" height="6.33" transform="translate(21.423 62.167)" fill="#953c2d"/>
          </g>
        </g>
      </g>
    </g>
  </g>
</svg>
