<svg xmlns="http://www.w3.org/2000/svg" xmlns:xlink="http://www.w3.org/1999/xlink" width="150" height="150" viewBox="0 0 150 150">
  <defs>
    <clipPath id="clip-path">
      <rect id="Rectangle_407255" data-name="Rectangle 407255" width="150" height="150" transform="translate(0)" fill="#f69a8b"/>
    </clipPath>
    <clipPath id="clip-path-2">
      <rect id="Rectangle_401492" data-name="Rectangle 401492" width="96.296" height="96.297" transform="translate(-0.331 0.001)" fill="#953c2d" stroke="#707070" stroke-width="1"/>
    </clipPath>
    <clipPath id="clip-path-3">
      <rect id="Rectangle_409811" data-name="Rectangle 409811" width="83.913" height="84" fill="#953c2d"/>
    </clipPath>
  </defs>
  <g id="Group_1118049" data-name="Group 1118049" transform="translate(-179.328 -3684.533)">
    <g id="Group_1116923" data-name="Group 1116923" transform="translate(179.328 3684.533)" clip-path="url(#clip-path)">
      <path id="Path_893365" data-name="Path 893365" d="M148.169,44.41C139.386,14.569,73.684-19.323,25.142,13.36s-13,149.535-6.586,125.918c6.165-22.7,33.5-4.155,54.014-3.491,22.845.739,37.666-5.15,37.63-5.238,10.531-3.911,17.983-9.053,24.206-18.726C146.839,92.5,153.455,62.367,148.169,44.41" transform="translate(0.001 3.798)" fill="#f69a8b"/>
    </g>
    <g id="Group_1115380" data-name="Group 1115380" transform="translate(222.027 3726.987)">
      <g id="Group_1120662" data-name="Group 1120662" transform="translate(-10.031 -8.546)">
        <g id="Group_1120661" data-name="Group 1120661" clip-path="url(#clip-path-3)">
          <path id="Path_928138" data-name="Path 928138" d="M16.354,0l0,2.23C17,1.989,17.42.823,18.163,1.017c.793.207,3.446,3.916,4.255,3.933A42.223,42.223,0,0,1,59.1,3.706C73.811-7.71,91.685,10.207,80.294,24.9a42.544,42.544,0,0,1,0,34.2C91.7,73.787,73.792,91.7,59.1,80.294A42.144,42.144,0,0,1,19.08,77.062V84H.372L0,83.628V70.372H5.451V64.92L6.937,64.8a41.727,41.727,0,0,1-1.986-42.38c-.017-.809-3.726-3.462-3.933-4.255C.823,17.42,1.989,17,2.23,16.356l-2.23,0V8.177l2.23,0C1.928,7.446.686,7.112,1.107,6.2A69.446,69.446,0,0,1,6.2,1.107c.912-.421,1.246.821,1.975,1.123l0-2.23ZM13.63,2.724H10.9l-.032,2.941c-2.252,1.081-2.728.94-4.3-.953L4.713,6.566c1.9,1.577,2.033,2.05.953,4.3L2.724,10.9V13.63l2.947.027c.878,2.192,1.151,2.617-.848,4.179-.261.56,1.437,1.59,1.743,1.973,1.654-1.962,1.99-1.94,4.308-.95l.027,2.947H13.63l.028-2.947c.853-.015,1.918-1,2.686-.656,1.5.671,1.061,3.091,3.461-.026l-1.679-2,.734-2.522,2.947-.028V10.9l-2.948-.027c-.878-2.192-1.151-2.617.849-4.179.174-.436-1.5-1.959-1.746-1.925L15.973,6.45l-2.316-.778Zm10.9,5.453v3.469c5.853,1.4,10.329,7.14,10.656,13.133.346.143.742-.249.866-.249h8.8c-.139-.718-.736-1.081-1.04-1.81a6.017,6.017,0,0,1,1.261-6.527c-2.732-3.342-2.22-8.367,1.947-10.185.221-.1,1.584-.558,1.672-.558h7.062L52.969,4.394a38.759,38.759,0,0,0-24.912.99c-.4.15-5.95,2.467-5.508,2.791Zm34.442,0h4.708a14.091,14.091,0,0,1,2.476-4.834c.164-.5-2.7.84-2.976.988a10.589,10.589,0,0,0-4.208,3.845m20.071,0a10.611,10.611,0,0,0-4.208-3.845c-.838-.455-2.087-1.2-2.976-.988l2.848,4.833Zm-7.434,0-2.6-4.208-2.6,4.208Zm-15.858,0H48.938a9.748,9.748,0,0,0-1.352.63A3.455,3.455,0,0,0,46.48,13.36c.5.891,2.785,2.421,3.075,3.121.172.415-.166.335-.314.422-1.914,1.13-4.033,1.913-2.879,4.753,1,2.45,2.089.738,3.486.316.511-.154,1.462-.094,1.652-.209.209-.127,1.6-3.742,2.991-3.712a16.037,16.037,0,0,1,1.262-9.875M62.69,10.9h-5.2a15.964,15.964,0,0,0,0,8.177h5.2a18.2,18.2,0,0,1,0-8.177m9.912,0H65.416a19.485,19.485,0,0,0,0,8.177H72.6a18.172,18.172,0,0,0,0-8.177m7.929,0h-5.2a17.073,17.073,0,0,1,0,8.177h5.2a13.39,13.39,0,0,0,0-8.177M30.225,28.741c.173-1.11,2.036-1.864,2.229-2.853.837-4.308-3.757-10.4-7.921-11.517v1.984H22.3c.241.639,1.407,1.064,1.212,1.806l-2.186,2.493c2.337,3.692,9.157,2.385,8.405,7.963Zm36.058,6.444c-1.969.328-4.748-.243-6.814,0V32.46h6.319c.564,0,2.262-1.91,1.86-2.725A14.307,14.307,0,0,1,55.5,20.815c-.69-.04-1.129.79-1.221,1.376-.161,1.027.1,5.854.512,6.645.49.95,1.88,2.171,2.576,3.372a23.306,23.306,0,0,1,1.472,3.236,16.872,16.872,0,0,0,.509,1.969c.647.9,7.3.541,8.539.119,3.548-1.2,4.58-4.612,4.714-8.045l-2.22.255c.226,2.178-1.976,5.089-4.1,5.443m-2.6-13.381H58.973a12.262,12.262,0,0,0,7.06,4.958Zm7.929,0h-5.2l2.6,4.207Zm7.434,0H74.708l-2.723,4.958a11.931,11.931,0,0,0,7.06-4.958M8.177,24.531v7.805a20.415,20.415,0,0,0,1.062,3.15,9.525,9.525,0,0,0,14.059,3.3c1.674-1.325.992-2.208,1.761-3.939.426-.958,1.711-2.041,1.892-2.568.349-1.015.516-4.4-.075-5.26-.143-.21-3.833-1.552-4.65-2.04A19.6,19.6,0,0,1,19.2,22.553l-1.239,1L16.356,22.3l0,2.23Zm43.363,0c-3.165.2-1.953,1.4.247,1.983Zm23.787,5.206c1.442.477,3.651-1.294,2.854-2.731-.25-.45-.4-.038-.645.1a8.565,8.565,0,0,1-2.168,1.177ZM56.49,43.605a13.391,13.391,0,0,0-7.508-15.4c-2.852-1.235-8.79-1.239-11.948-.957A6.838,6.838,0,0,0,31.669,31.3c-.233.521-.56,2.185-.753,2.346-.3.248-1.723.407-2.478,1.043-2.423,2.041-.5,6.212-.685,8.924l2.187-.289c.55-2.676,2.694-3.552,4.894-4.663l-.889-3.224,2.6-.5a7.069,7.069,0,0,0,6.817,5.7,12.266,12.266,0,0,1-2.73-5.073l2.726-.625a7.107,7.107,0,0,0,4.658,5.383c2.151.626,5.131.01,5.789,3ZM5.451,32.336c-.131-1.3.1-2.769,0-4.088L3.838,33.2a39.047,39.047,0,0,0-.366,16.109,22.07,22.07,0,0,1,3.638-2.926c2.392-1.315,4.6-.83,4.746-4.36-3.281-2.188-5.993-5.633-6.4-9.687M79.786,31.22c-.963.055-1.628.974-2.659,1.182a15.075,15.075,0,0,0-2.063.167,9.7,9.7,0,0,1-5.408,7.107c-.1,3,1.276,2.544,3.282,3.475a20.16,20.16,0,0,1,6.112,4.295,19.886,19.886,0,0,0,1.478,1.864,41.88,41.88,0,0,0-.742-18.088m-19.55,9.441-.409,2.2,3.536,2.7c.47.123,3.875-2.4,4-2.877.112-.428-.189-1.874-.615-2.019Zm-23.871.262c-1.327.216-3.957,1.97-3.9,3.585,1.026,4.6-.7,11.678,4.32,14.225,2.082,1.057,7.994,1.11,10.1.174,5.318-2.361,3.584-9.341,4.633-13.967a1.45,1.45,0,0,0-1.333-1.59c-3.575-.48-7.17.767-10.79-.856-.945-.424-2.066-1.729-3.034-1.572M25.273,45.1l-.616-3.961c-2.355.754-.152,4.75.616,3.961M13.157,48.79l8.906-.09c1.411-2-1.184-3.381-1.125-5.6l-.233-.171c-2.134.7-4.146.3-6.307.21a11.605,11.605,0,0,1-.721,2.374c-.586,1.42-1.347,1.279-.519,3.274M69.316,44.9c-.694.145-2.366,1.913-3.152,2.306L69.5,49.311c.636-1.141,2.5-4.973-.183-4.414m-8.36,2.674c.334-.442-2.051-2.166-2.228-1.978l.744,2.477ZM29.981,46.088c-2.072-.014-3.133,1.534-2.671,3.543.295,1.282,2.933,2.586,3.1,1.549Zm24.038,0-.434,5.091c.172,1.037,2.81-.266,3.1-1.549.461-2.009-.6-3.557-2.671-3.543m19.329.5L71.12,53.171l-3.552-1.609c-3.177,3.541,1.286,2.5,3.421,2.706a14.033,14.033,0,0,1,6.941,2.967c.261,0,1.491-3.2,1.567-3.654.33-1.985-5.541-7.541-6.149-7M10.9,64.92V59.469H19.08V73.717c.542.349,3.266,2.5,3.715,2.107,1.554-6.045,6.938-10.4,12.768-12.137l.51-2.244a9.474,9.474,0,0,1-5.358-7.164c-2.6.025-5.253-1.155-5.919-3.832l-.508-.144c-.146,1.973-5.154,6.887-6.759,6.648-2.581-.386-7.175-6.13-7.372-8.878-1.727.323-5.821,3.289-5.691,5.048a26.13,26.13,0,0,0,1.614,4.608c.587,1.372,3,6.105,3.967,6.935a.813.813,0,0,0,.857.259M65.167,49.81c-1.075-.357-1.491-1.265-2.567-.219-.851.827.194,2.107,1.194,1.957.618-.092,1.27-1.121,1.373-1.737M20.319,51.54H14.867a8.442,8.442,0,0,0,2.848,2.4,8.9,8.9,0,0,0,2.6-2.4m39.609.033c-1.539-.079-2.129,1.505-3.428,2.078a8.353,8.353,0,0,1-3.214.626,9.555,9.555,0,0,1-5.358,7.164l.634,2.368,5.95,2.6a12.121,12.121,0,0,1,1.694-4.872c.813-1.419,2.452-2.747,3.028-3.91a44.136,44.136,0,0,0,1.451-4.48c-.011-.557-.616-1.029-.758-1.571m9.081,5.311c-16.2,0-15.764,24.6.246,24.412,15.439-.177,16-24.408-.246-24.412M16.354,62.195H13.628v19.08h2.726Zm28.958.032-6.494-.043c-.259.061-.649,1.828-.6,2.089.1.529,3.192,2.516,3.78,3.051a28.541,28.541,0,0,0,3.724-2.9,5.973,5.973,0,0,0-.412-2.193m-5.915,6.9c.095-.381-.062-.4-.262-.6-.224-.227-2.533-1.935-2.723-2-.582-.2-1.143.363-1.722.376l1.373,3.96Zm9.914-2.223c-.579-.013-1.14-.577-1.722-.376-.19.065-2.5,1.773-2.723,2-.2.2-.357.218-.263.6l3.335,1.737ZM10.9,67.646H8.177V81.274H10.9Zm23.543,7.433-2.354-6.935a15.1,15.1,0,0,0-7.045,9.023c.211.917,10.406,3.854,11.958,3.626.321-.078,2.167-5.95,2.1-6.273-.072-.344-.876-1.43-1.274-1.39Zm19.766-5.4-2.421-1.537-2.237,6.938L46.17,73.13c-.5-.051-1.335,1.235-1.281,1.76.163,1.575,1.691,4.146,1.977,5.852.839.537,10.364-2.182,10.368-2.813a14.832,14.832,0,0,1-2.906-6.5c-.113-.535.059-1.435-.116-1.746m-12.4.976a4.919,4.919,0,0,0-1.4,1.077c1.05,1.863,2.122,1.86,3.17,0-.4-.412-1.2-1.189-1.771-1.077M5.451,73.1H2.726V80.9c.653.705,1.84.26,2.726.372Zm34.442,7.927c.712.168,4.014.63,4.2-.139-.35-.733-1.39-4.907-1.85-5.057s-.6.064-.813.416c-.653,1.094-.96,3.514-1.536,4.781" fill="#953c2d"/>
          <path id="Path_928139" data-name="Path 928139" d="M261.791,242.722h2.727l0-2.728h2.728l-.017,3.069a4.5,4.5,0,0,1,2.743,5.11h-2.728c.27-2.151-.592-2.992-2.725-2.728-.66,3.591,2.275,2.187,4.092,3.715a6.424,6.424,0,0,1,1.36,2.357v4.832h-2.727l0,2.728h-2.728l-.039-2.81c-1.925-1.4-3.049-2.846-2.687-5.369h2.728c-.27,2.151.592,2.992,2.725,2.728.655-3.57-2.189-2.205-3.956-3.6a7.09,7.09,0,0,1-1.5-2.468Z" transform="translate(-196.87 -180.527)" fill="#953c2d"/>
          <path id="Path_928140" data-name="Path 928140" d="M158.575,210.729a3.342,3.342,0,0,0,2.634-2.694l2.692-.031c.212,1.825-2.316,5.2-4.088,5.2H153v-2.478c1.729-.181,3.91.247,5.575,0" transform="translate(-115.088 -156.464)" fill="#953c2d"/>
          <path id="Path_928141" data-name="Path 928141" d="M55,136.313v-2.726h6.319c.682,0,1.963-1.927,1.886-2.7,2.277-.117,3.252-.4,2.212,2.087-.476,1.141-2.612,3.335-3.85,3.335Z" transform="translate(-41.372 -98.402)" fill="#953c2d"/>
          <path id="Path_928142" data-name="Path 928142" d="M36.658,33.056c4.6-.738,6.655,5.732,2.459,7.666-5.765,2.657-8.312-6.728-2.459-7.666m.491,2.709a1.364,1.364,0,0,0,.431,2.691c1.685-.173,1.285-2.952-.431-2.691" transform="translate(-25.075 -24.821)" fill="#953c2d"/>
        </g>
      </g>
    </g>
  </g>
</svg>
