<svg xmlns="http://www.w3.org/2000/svg" xmlns:xlink="http://www.w3.org/1999/xlink" width="99" height="99" viewBox="0 0 99 99">
  <defs>
    <clipPath id="clip-path">
      <rect id="Rectangle_401223" data-name="Rectangle 401223" width="99" height="99" transform="translate(0)" fill="#8ce6fe"/>
    </clipPath>
    <clipPath id="clip-path-2">
      <rect id="Rectangle_401223-2" data-name="Rectangle 401223" width="88.539" height="88.539" fill="#f3f9ff"/>
    </clipPath>
    <clipPath id="clip-path-3">
      <rect id="Rectangle_409821" data-name="Rectangle 409821" width="61.896" height="61.845" fill="none"/>
    </clipPath>
  </defs>
  <g id="Group_1120252" data-name="Group 1120252" transform="translate(-619.921 -5755.871)">
    <g id="Group_1100724" data-name="Group 1100724" transform="translate(619.921 5755.871)">
      <g id="Group_1099654" data-name="Group 1099654" transform="translate(0 0)">
        <g id="Group_1099652" data-name="Group 1099652" clip-path="url(#clip-path)">
          <path id="Path_873521" data-name="Path 873521" d="M99,77.066A22,22,0,0,1,77.066,99H21.934A22,22,0,0,1,0,77.066V21.933A22,22,0,0,1,21.934,0H77.066A22,22,0,0,1,99,21.934Z" transform="translate(0)" fill="#ffdcd6"/>
        </g>
      </g>
      <g id="Group_1099659" data-name="Group 1099659" transform="translate(4.77 5.723)">
        <g id="Group_1099652-2" data-name="Group 1099652" transform="translate(0 0)" clip-path="url(#clip-path-2)">
          <path id="Path_873521-2" data-name="Path 873521" d="M88.539,68.922A19.674,19.674,0,0,1,68.923,88.539H19.616A19.674,19.674,0,0,1,0,68.922V19.616A19.674,19.674,0,0,1,19.616,0H68.923A19.674,19.674,0,0,1,88.539,19.616Z" fill="#f3f9ff"/>
        </g>
      </g>
    </g>
    <g id="Group_1100725" data-name="Group 1100725" transform="translate(636.343 5771.293)">
      <rect id="Rectangle_401104" data-name="Rectangle 401104" width="68" height="69" transform="translate(0.657 -0.049)" fill="none"/>
      <g id="Group_1120669" data-name="Group 1120669" transform="translate(3.657 3.951)">
        <g id="Group_1120668" data-name="Group 1120668" clip-path="url(#clip-path-3)">
          <path id="Path_928153" data-name="Path 928153" d="M10.618,34.849c0,1.4,0,2.81,0,4.21-1.192.193-5.451-.413-6.126.372a1.21,1.21,0,0,0-.269.646L4.2,84.557a1.2,1.2,0,0,0,.73,1.284l34.159.089a1.176,1.176,0,0,0,1.368-1.195l-.015-44.658a1.21,1.21,0,0,0-.269-.646c-.675-.785-4.934-.179-6.126-.372,0-1.4,0-2.809,0-4.21,3.726.062,9.543-1.294,10.573,3.431.021,16.229.181,32.5-.081,48.707a4.286,4.286,0,0,1-3.626,3.147l-36.8.007A4.25,4.25,0,0,1,0,86.381L.021,38.439a4.235,4.235,0,0,1,3.725-3.6c2.122-.19,4.683.044,6.872.007" transform="translate(0 -28.36)" fill="#805434"/>
          <path id="Path_928154" data-name="Path 928154" d="M81.076,6.742c0,1.4,0,2.81,0,4.21,0,2.562.926,6.179-2.464,6.415-6.236.434-13.042-.276-19.333-.086a2.255,2.255,0,0,1-1.6-1.516,31.51,31.51,0,0,1-.038-4.812c0-1.4,0-2.809,0-4.21,1.025-.017,2.21.1,3.2,0,2.694-.27,2.121-2.132,3.42-3.9a6.382,6.382,0,0,1,10.407.33c1.141,1.753.587,3.31,3.2,3.572.992.1,2.176-.015,3.2,0M68.949,4.585c-2.668.439-2,4.826,1.014,4.131,2.3-.531,1.831-4.6-1.014-4.131m-6.418,7.5a1.033,1.033,0,0,0,.322,1.987c4.036-.418,9.107.525,13.015,0a1.017,1.017,0,0,0,0-2.032Z" transform="translate(-47.026 -0.253)" fill="#f2d45b"/>
          <path id="Path_928155" data-name="Path 928155" d="M287.621,157.3a2.324,2.324,0,0,1,1.108,1.913c.622,6.473-.488,13.937-.005,20.516.151.743-1,1.293-1.1,1.735H279.2c-.1-.42-1.3-1.089-1.1-1.922.47-6.518-.625-13.915-.009-20.328A2.356,2.356,0,0,1,279.2,157.3a3.535,3.535,0,0,1,1.182-.191c1.182-.079,6.449-.152,7.239.191" transform="translate(-227.028 -128.295)" fill="#e54c3d"/>
          <path id="Path_928156" data-name="Path 928156" d="M290.315,52.291c0,2.989-.069,5.992.082,8.979.265.809,2.2.6,3.03.54V71.7c-.79-.344-6.056-.27-7.239-.191a3.535,3.535,0,0,0-1.182.191v-19.4c1.651.189,3.619-.139,5.309,0" transform="translate(-232.834 -42.69)" fill="#bf3a2b"/>
          <path id="Path_928157" data-name="Path 928157" d="M317.049,23.251c.718.081,1.127.372,1.11,1.179-.359,4,.441,8.731-.008,12.645-.106.926-.272.945-1.1,1s-2.764.269-3.03-.54c-.151-2.987-.082-5.99-.082-8.979V23.251c.978.012,2.18-.106,3.112,0" transform="translate(-256.455 -18.958)" fill="#e54c3d"/>
          <path id="Path_928158" data-name="Path 928158" d="M279.641,23.047a44.384,44.384,0,0,1,5.309,0v5.309c-1.69-.139-3.657.189-5.309,0-.906-.1-1.031-.507-1.107-1.364-.11-1.233-.392-3.741,1.107-3.945" transform="translate(-227.468 -18.754)" fill="#813035"/>
          <path id="Path_928159" data-name="Path 928159" d="M293.28,4.294c-.932-.106-2.134.012-3.112,0a44.383,44.383,0,0,0-5.309,0c-.36-3.9,2.3-4.543,5.592-4.219,2.247.22,3.1,2.143,2.828,4.219" transform="translate(-232.687 -0.001)" fill="#bf3a2b"/>
          <path id="Path_928160" data-name="Path 928160" d="M293.427,290.45c-.08.358.057.875-.044,1.329a5.417,5.417,0,0,1-2.7,3.431,2.538,2.538,0,0,0-2.929.183c-1.32-1.136-2.217-1.887-2.664-3.651-.118-.464,0-.952-.082-1.291Z" transform="translate(-232.834 -237.281)" fill="#d0d3d0"/>
          <path id="Path_928161" data-name="Path 928161" d="M299.76,314.745a2.477,2.477,0,0,1,.1,3.3c-2.021,1.929-5.153-1.1-3.025-3.116a2.538,2.538,0,0,1,2.929-.183" transform="translate(-241.913 -256.817)" fill="#43606f"/>
          <path id="Path_928162" data-name="Path 928162" d="M29.37,58.257a31.511,31.511,0,0,0,.038,4.812,2.255,2.255,0,0,0,1.6,1.516c6.29-.189,13.1.52,19.333.086,3.39-.236,2.464-3.852,2.464-6.415,1.192.193,5.451-.413,6.126.372a1.21,1.21,0,0,1,.269.646l.015,44.658a1.176,1.176,0,0,1-1.368,1.195l-34.159-.089a1.2,1.2,0,0,1-.73-1.284l.02-44.48a1.21,1.21,0,0,1,.269-.646c.675-.785,4.934-.179,6.126-.372m8.055,10.618c-2.931.244-6.377-.328-9.244,0a2.337,2.337,0,0,0-2.113,2.464,56.431,56.431,0,0,0,.007,8.062,2.318,2.318,0,0,0,2.1,2.3,61.272,61.272,0,0,0,8.8,0c1.41-.17,1.968-1.178,2.1-2.478a65.362,65.362,0,0,0,.01-7.512,1.746,1.746,0,0,0-.191-1c.49-.713,1.389-1.583.745-2.485-.739-1.036-1.7.013-2.21.654M27.856,85.94a2.41,2.41,0,0,0-1.765,2.079,54.951,54.951,0,0,0-.017,8.405,2.292,2.292,0,0,0,2.282,2.295,60.921,60.921,0,0,0,8.435,0c1.67-.156,2.153-1.089,2.288-2.655a55.072,55.072,0,0,0-.009-7.693c-.131-1.311-.7-2.309-2.1-2.478a62.282,62.282,0,0,0-9.115.046" transform="translate(-18.751 -47.557)" fill="#eaeeef"/>
          <path id="Path_928163" data-name="Path 928163" d="M81.848,64.445,95.185,64.4a1.017,1.017,0,0,1,0,2.032c-3.908.525-8.979-.418-13.015,0a1.033,1.033,0,0,1-.322-1.987" transform="translate(-66.343 -52.612)" fill="#efc31a"/>
          <path id="Path_928164" data-name="Path 928164" d="M41.1,208.831a62.231,62.231,0,0,1,9.115-.046c1.4.168,1.968,1.166,2.1,2.477a55.072,55.072,0,0,1,.009,7.693c-.134,1.566-.618,2.5-2.288,2.655a60.95,60.95,0,0,1-8.435,0,2.292,2.292,0,0,1-2.282-2.295,54.926,54.926,0,0,1,.017-8.4,2.409,2.409,0,0,1,1.765-2.08m9.019,2.155h-8.6v8.421h8.6Z" transform="translate(-31.999 -170.448)" fill="#43606f"/>
          <path id="Path_928165" data-name="Path 928165" d="M50.693,115.985c-.5.631-.885,1.737-1.648,2.2H41.541V126.6h8.6v-5.858c.648-.895,1.362-1.981,2.014-2.929a1.746,1.746,0,0,1,.191,1,65.362,65.362,0,0,1-.01,7.512c-.131,1.3-.689,2.307-2.1,2.478a61.246,61.246,0,0,1-8.8,0,2.318,2.318,0,0,1-2.1-2.3,56.433,56.433,0,0,1-.007-8.063,2.338,2.338,0,0,1,2.113-2.464c2.868-.328,6.314.243,9.244,0" transform="translate(-32.02 -94.667)" fill="#446170"/>
          <path id="Path_928166" data-name="Path 928166" d="M67.632,113.411c-.651.948-1.366,2.034-2.014,2.929-.069.1-.376.235-.544.458a44.259,44.259,0,0,1-3.243,4.267A1.829,1.829,0,0,1,60.678,121a20.122,20.122,0,0,1-2.49-2.644,1.089,1.089,0,0,1,.932-1.457c.843,0,1.648,1.777,2.263,1.425l3.136-4.55c.762-.459,1.15-1.566,1.648-2.2s1.471-1.691,2.21-.654c.643.9-.256,1.772-.745,2.485" transform="translate(-47.494 -90.263)" fill="#52ba72"/>
          <rect id="Rectangle_409816" data-name="Rectangle 409816" width="8.604" height="8.421" transform="translate(9.52 40.538)" fill="#e9edee"/>
          <path id="Path_928167" data-name="Path 928167" d="M59.511,128.45,56.375,133c-.615.353-1.42-1.423-2.263-1.425a1.089,1.089,0,0,0-.932,1.457,20.122,20.122,0,0,0,2.49,2.644,1.829,1.829,0,0,0,1.153.061,44.261,44.261,0,0,0,3.243-4.267c.167-.223.475-.363.544-.458v5.858h-8.6V128.45Z" transform="translate(-42.486 -104.936)" fill="#e7ecec"/>
          <rect id="Rectangle_409817" data-name="Rectangle 409817" width="15.946" height="2.766" transform="translate(22.405 22.883)" fill="#446170"/>
          <rect id="Rectangle_409818" data-name="Rectangle 409818" width="15.946" height="2.766" transform="translate(22.405 29.066)" fill="#446170"/>
          <rect id="Rectangle_409819" data-name="Rectangle 409819" width="15.946" height="2.766" transform="translate(22.405 40.782)" fill="#446170"/>
          <rect id="Rectangle_409820" data-name="Rectangle 409820" width="15.946" height="2.766" transform="translate(22.405 46.965)" fill="#446170"/>
        </g>
      </g>
    </g>
  </g>
</svg>
